<svg width="36" height="35" viewBox="0 0 36 35" fill="none" xmlns="http://www.w3.org/2000/svg">
  <path fillRule="evenodd" clipRule="evenodd" d="M6.70703 17.5C6.70703 23.2685 10.92 28.0648 16.4293 29.037L16.4944 28.9849C16.4727 28.9807 16.4509 28.9764 16.4292 28.9721V20.7406H13.5125V17.4999H16.4292V14.9073C16.4292 11.9906 18.3088 10.3702 20.9662 10.3702C21.8088 10.3702 22.7162 10.4999 23.5588 10.6295V13.611H22.0681C20.6422 13.611 20.3181 14.324 20.3181 15.2314V17.4999H23.4292L22.9107 20.7406H20.3181V28.9721C20.2964 28.9764 20.2747 28.9807 20.253 28.9849L20.3181 29.037C25.8274 28.0648 30.0404 23.2685 30.0404 17.5C30.0404 11.0833 24.7904 5.83333 18.3737 5.83333C11.957 5.83333 6.70703 11.0833 6.70703 17.5Z" />
</svg>