<svg xmlns="http://www.w3.org/2000/svg" viewBox="-798.584 -45.431 16 15">
  <defs>
    <style>
      .cls-1 {
        fill: #000000;
      }
    </style>
  </defs>
  <g id="noun_650046_cc" transform="translate(-848 -85.573)">
    <path id="Path_843" data-name="Path 843" class="cls-1" d="M40.542,18.934h-5.1a2.429,2.429,0,0,0-4.723,0h-5.1a.537.537,0,1,0,0,1.074h5.1a2.428,2.428,0,0,0,4.722,0h5.1a.537.537,0,1,0,0-1.074ZM33.085,20.8a1.323,1.323,0,1,1,1.332-1.39.486.486,0,0,0-.007.066.591.591,0,0,0,.007.066A1.33,1.33,0,0,1,33.085,20.8Z" transform="translate(24.331 23.068)"/>
    <path id="Path_844" data-name="Path 844" class="cls-1" d="M40.542,56.933H39.407a2.429,2.429,0,0,0-4.723,0H25.628a.537.537,0,1,0,0,1.074h9.057a2.429,2.429,0,0,0,4.722,0h1.135a.537.537,0,1,0,0-1.074Zm-3.5,1.861a1.324,1.324,0,1,1,1.339-1.324A1.333,1.333,0,0,1,37.046,58.793Z" transform="translate(24.331 -4.726)"/>
    <path id="Path_845" data-name="Path 845" class="cls-1" d="M40.542,37.934H31.485a2.429,2.429,0,0,0-4.723,0H25.628a.537.537,0,1,0,0,1.074h1.135a2.429,2.429,0,0,0,4.722,0h9.057a.537.537,0,1,0,0-1.074ZM29.124,39.794a1.324,1.324,0,1,1,1.339-1.324A1.333,1.333,0,0,1,29.124,39.794Z" transform="translate(24.331 9.171)"/>
  </g>
</svg>
