<svg width="35" height="35" viewBox="0 0 35 35" fill="none" xmlns="http://www.w3.org/2000/svg">
  <path d="M17.501 6.56206C14.5306 6.56206 14.1578 6.57505 12.9911 6.62814C11.8267 6.68146 11.0319 6.86581 10.3364 7.1363C9.61706 7.41567 9.00683 7.78939 8.39888 8.39758C7.79048 9.00555 7.41677 9.61579 7.1365 10.335C6.86533 11.0307 6.68076 11.8257 6.62835 12.9897C6.57617 14.1564 6.5625 14.5294 6.5625 17.5C6.5625 20.4706 6.57572 20.8422 6.62858 22.0089C6.68213 23.1734 6.86647 23.9682 7.13672 24.6637C7.41632 25.3831 7.79002 25.9933 8.3982 26.6013C9.00592 27.2097 9.61615 27.5843 10.3351 27.8637C11.031 28.1342 11.826 28.3185 12.9902 28.3719C14.1569 28.425 14.5294 28.4379 17.4997 28.4379C20.4704 28.4379 20.842 28.425 22.0087 28.3719C23.1731 28.3185 23.9688 28.1342 24.6647 27.8637C25.3839 27.5843 25.9932 27.2097 26.6009 26.6013C27.2093 25.9933 27.583 25.3831 27.8633 24.6639C28.1322 23.9682 28.3167 23.1731 28.3714 22.0092C28.4238 20.8425 28.4375 20.4706 28.4375 17.5C28.4375 14.5294 28.4238 14.1566 28.3714 12.9899C28.3167 11.8255 28.1322 11.0307 27.8633 10.3352C27.583 9.61579 27.2093 9.00555 26.6009 8.39758C25.9925 7.78916 25.3841 7.41544 24.664 7.1363C23.9668 6.86581 23.1715 6.68146 22.0071 6.62814C20.8404 6.57505 20.469 6.56206 17.4976 6.56206H17.501ZM16.5198 8.53317C16.811 8.53271 17.136 8.53317 17.501 8.53317C20.4214 8.53317 20.7675 8.54365 21.9207 8.59606C22.9872 8.64482 23.5659 8.82302 23.9515 8.97273C24.4619 9.17098 24.8258 9.40797 25.2084 9.7908C25.5912 10.1736 25.8282 10.5382 26.0269 11.0487C26.1766 11.4338 26.355 12.0126 26.4036 13.079C26.456 14.2321 26.4674 14.5784 26.4674 17.4975C26.4674 20.4166 26.456 20.7629 26.4036 21.916C26.3548 22.9824 26.1766 23.5612 26.0269 23.9463C25.8287 24.4568 25.5912 24.8202 25.2084 25.2028C24.8256 25.5856 24.4621 25.8226 23.9515 26.0209C23.5664 26.1713 22.9872 26.349 21.9207 26.3978C20.7677 26.4502 20.4214 26.4616 17.501 26.4616C14.5805 26.4616 14.2343 26.4502 13.0813 26.3978C12.0149 26.3486 11.4361 26.1704 11.0503 26.0207C10.5399 25.8224 10.1753 25.5854 9.79251 25.2026C9.4097 24.8198 9.17272 24.4561 8.97402 23.9454C8.82431 23.5603 8.64589 22.9815 8.59735 21.9151C8.54494 20.762 8.53446 20.4156 8.53446 17.4948C8.53446 14.5739 8.54494 14.2293 8.59735 13.0763C8.64612 12.0098 8.82431 11.431 8.97402 11.0455C9.17226 10.535 9.4097 10.1704 9.79251 9.78761C10.1753 9.40478 10.5399 9.16779 11.0503 8.96909C11.4359 8.81869 12.0149 8.64095 13.0813 8.59196C14.0903 8.54638 14.4813 8.53271 16.5198 8.53043V8.53317ZM23.3394 10.3493C22.6148 10.3493 22.0269 10.9366 22.0269 11.6614C22.0269 12.3861 22.6148 12.974 23.3394 12.974C24.064 12.974 24.6519 12.3861 24.6519 11.6614C24.6519 10.9368 24.064 10.3489 23.3394 10.3489V10.3493ZM17.501 11.8829C14.3991 11.8829 11.8841 14.398 11.8841 17.5C11.8841 20.602 14.3991 23.1159 17.501 23.1159C20.603 23.1159 23.117 20.602 23.117 17.5C23.117 14.398 20.6028 11.8829 17.5008 11.8829H17.501ZM17.501 13.854C19.5145 13.854 21.1469 15.4863 21.1469 17.5C21.1469 19.5135 19.5145 21.146 17.501 21.146C15.4874 21.146 13.8552 19.5135 13.8552 17.5C13.8552 15.4863 15.4874 13.854 17.501 13.854V13.854Z" />
</svg>