<svg width="36" height="35" viewBox="0 0 36 35" fill="none" xmlns="http://www.w3.org/2000/svg">
  <path d="M25.025 16.1761C21.2643 13.9428 15.0611 13.7374 11.4711 14.8271C10.8946 15.002 10.285 14.6765 10.1103 14.1001C9.93557 13.5233 10.2607 12.9141 10.8376 12.7388C14.9587 11.4878 21.8095 11.7295 26.1388 14.2994C26.6573 14.6072 26.8274 15.2768 26.5201 15.7945C26.2125 16.3131 25.5423 16.484 25.025 16.1761ZM24.9018 19.484C24.638 19.9121 24.0782 20.0464 23.6506 19.7835C20.5154 17.8564 15.7345 17.2982 12.0253 18.4239C11.5442 18.5694 11.0362 18.2981 10.8902 17.8181C10.7451 17.337 11.0165 16.8299 11.4966 16.6836C15.734 15.3979 21.0016 16.0206 24.6026 18.2335C25.0301 18.4968 25.1647 19.057 24.9018 19.484ZM23.4743 22.6608C23.2646 23.0046 22.817 23.1123 22.4744 22.9028C19.7347 21.2283 16.2864 20.8502 12.2253 21.7778C11.834 21.8675 11.4441 21.6223 11.3548 21.231C11.2652 20.8398 11.5094 20.4497 11.9017 20.3604C16.3457 19.3445 20.1579 19.7817 23.233 21.6608C23.5758 21.8702 23.6838 22.3181 23.4743 22.6608ZM18.1238 5.83342C11.6805 5.83342 6.45703 11.0567 6.45703 17.4999C6.45703 23.9437 11.6805 29.1666 18.1238 29.1666C24.5672 29.1666 29.7904 23.9437 29.7904 17.4999C29.7904 11.0567 24.5672 5.83342 18.1238 5.83342Z" />
</svg>