<svg width="36" height="35" viewBox="0 0 36 35" fill="none" xmlns="http://www.w3.org/2000/svg">
  <path fillRule="evenodd" clipRule="evenodd" d="M28.5207 8.58302C29.6451 8.88573 30.5316 9.77226 30.8343 10.8966C31.3965 12.9508 31.3749 17.2321 31.3749 17.2321C31.3749 17.2321 31.3749 21.4917 30.8343 23.5459C30.5316 24.6703 29.6451 25.5568 28.5207 25.8595C26.4665 26.4001 18.2499 26.4001 18.2499 26.4001C18.2499 26.4001 10.055 26.4001 7.97919 25.8379C6.85481 25.5352 5.96828 24.6486 5.66557 23.5243C5.125 21.4917 5.125 17.2105 5.125 17.2105C5.125 17.2105 5.125 12.9508 5.66557 10.8966C5.96828 9.77226 6.87643 8.86411 7.97919 8.56139C10.0333 8.02083 18.2499 8.02083 18.2499 8.02083C18.2499 8.02083 26.4665 8.02083 28.5207 8.58302ZM22.4664 17.0603L15.6336 20.9956V13.125L22.4664 17.0603Z" />
</svg>